<mxfile host="app.diagrams.net" agent="Mozilla/5.0 (Macintosh; Intel Mac OS X 10_15_7) AppleWebKit/537.36 (KHTML, like Gecko) Chrome/130.0.0.0 Safari/537.36" version="24.8.3">
  <diagram name="Page-1" id="x6x_ui1XCo5rHXjED7UX">
    <mxGraphModel dx="1596" dy="738" grid="0" gridSize="10" guides="1" tooltips="1" connect="1" arrows="1" fold="1" page="1" pageScale="1" pageWidth="850" pageHeight="1100" math="0" shadow="0">
      <root>
        <mxCell id="0" />
        <mxCell id="1" parent="0" />
        <mxCell id="sN2Y_lVup7HZPwMn_3_K-4" value="" style="edgeStyle=orthogonalEdgeStyle;rounded=0;orthogonalLoop=1;jettySize=auto;html=1;" edge="1" parent="1" source="sN2Y_lVup7HZPwMn_3_K-1" target="sN2Y_lVup7HZPwMn_3_K-3">
          <mxGeometry relative="1" as="geometry" />
        </mxCell>
        <mxCell id="sN2Y_lVup7HZPwMn_3_K-1" value="&lt;font style=&quot;font-size: 12px;&quot;&gt;Start&lt;/font&gt;" style="rounded=0;whiteSpace=wrap;html=1;" vertex="1" parent="1">
          <mxGeometry x="365.5" y="10" width="120" height="60" as="geometry" />
        </mxCell>
        <mxCell id="sN2Y_lVup7HZPwMn_3_K-39" value="" style="edgeStyle=orthogonalEdgeStyle;rounded=0;orthogonalLoop=1;jettySize=auto;html=1;" edge="1" parent="1" source="sN2Y_lVup7HZPwMn_3_K-3" target="sN2Y_lVup7HZPwMn_3_K-38">
          <mxGeometry relative="1" as="geometry" />
        </mxCell>
        <mxCell id="sN2Y_lVup7HZPwMn_3_K-3" value="&lt;font style=&quot;font-size: 12px;&quot;&gt;Ask the user for the first number&lt;/font&gt;" style="whiteSpace=wrap;html=1;rounded=0;" vertex="1" parent="1">
          <mxGeometry x="365.5" y="100" width="120" height="60" as="geometry" />
        </mxCell>
        <mxCell id="sN2Y_lVup7HZPwMn_3_K-10" value="" style="edgeStyle=orthogonalEdgeStyle;rounded=0;orthogonalLoop=1;jettySize=auto;html=1;" edge="1" parent="1" source="sN2Y_lVup7HZPwMn_3_K-7" target="sN2Y_lVup7HZPwMn_3_K-9">
          <mxGeometry relative="1" as="geometry" />
        </mxCell>
        <mxCell id="sN2Y_lVup7HZPwMn_3_K-11" value="" style="edgeStyle=orthogonalEdgeStyle;rounded=0;orthogonalLoop=1;jettySize=auto;html=1;" edge="1" parent="1" source="sN2Y_lVup7HZPwMn_3_K-7" target="sN2Y_lVup7HZPwMn_3_K-9">
          <mxGeometry relative="1" as="geometry" />
        </mxCell>
        <mxCell id="sN2Y_lVup7HZPwMn_3_K-19" value="&lt;font style=&quot;font-size: 18px;&quot;&gt;+&lt;/font&gt;" style="edgeLabel;html=1;align=center;verticalAlign=middle;resizable=0;points=[];" vertex="1" connectable="0" parent="sN2Y_lVup7HZPwMn_3_K-11">
          <mxGeometry x="0.3105" relative="1" as="geometry">
            <mxPoint x="10" y="14" as="offset" />
          </mxGeometry>
        </mxCell>
        <mxCell id="sN2Y_lVup7HZPwMn_3_K-13" value="" style="edgeStyle=orthogonalEdgeStyle;rounded=0;orthogonalLoop=1;jettySize=auto;html=1;" edge="1" parent="1" source="sN2Y_lVup7HZPwMn_3_K-7" target="sN2Y_lVup7HZPwMn_3_K-12">
          <mxGeometry relative="1" as="geometry" />
        </mxCell>
        <mxCell id="sN2Y_lVup7HZPwMn_3_K-20" value="&lt;font style=&quot;font-size: 18px;&quot;&gt;-&lt;/font&gt;" style="edgeLabel;html=1;align=center;verticalAlign=middle;resizable=0;points=[];" vertex="1" connectable="0" parent="sN2Y_lVup7HZPwMn_3_K-13">
          <mxGeometry x="0.3298" relative="1" as="geometry">
            <mxPoint x="10" y="3" as="offset" />
          </mxGeometry>
        </mxCell>
        <mxCell id="sN2Y_lVup7HZPwMn_3_K-15" value="" style="edgeStyle=orthogonalEdgeStyle;rounded=0;orthogonalLoop=1;jettySize=auto;html=1;" edge="1" parent="1" source="sN2Y_lVup7HZPwMn_3_K-7" target="sN2Y_lVup7HZPwMn_3_K-14">
          <mxGeometry relative="1" as="geometry" />
        </mxCell>
        <mxCell id="sN2Y_lVup7HZPwMn_3_K-16" value="" style="edgeStyle=orthogonalEdgeStyle;rounded=0;orthogonalLoop=1;jettySize=auto;html=1;" edge="1" parent="1" source="sN2Y_lVup7HZPwMn_3_K-7" target="sN2Y_lVup7HZPwMn_3_K-14">
          <mxGeometry relative="1" as="geometry" />
        </mxCell>
        <mxCell id="sN2Y_lVup7HZPwMn_3_K-21" value="&lt;font style=&quot;font-size: 18px;&quot;&gt;*&lt;/font&gt;" style="edgeLabel;html=1;align=center;verticalAlign=middle;resizable=0;points=[];" vertex="1" connectable="0" parent="sN2Y_lVup7HZPwMn_3_K-16">
          <mxGeometry x="0.2074" y="-3" relative="1" as="geometry">
            <mxPoint x="-18" as="offset" />
          </mxGeometry>
        </mxCell>
        <mxCell id="sN2Y_lVup7HZPwMn_3_K-18" value="" style="edgeStyle=orthogonalEdgeStyle;rounded=0;orthogonalLoop=1;jettySize=auto;html=1;" edge="1" parent="1" source="sN2Y_lVup7HZPwMn_3_K-7" target="sN2Y_lVup7HZPwMn_3_K-17">
          <mxGeometry relative="1" as="geometry" />
        </mxCell>
        <mxCell id="sN2Y_lVup7HZPwMn_3_K-24" value="&lt;font style=&quot;font-size: 18px;&quot;&gt;/&lt;/font&gt;" style="edgeLabel;html=1;align=center;verticalAlign=middle;resizable=0;points=[];" vertex="1" connectable="0" parent="sN2Y_lVup7HZPwMn_3_K-18">
          <mxGeometry x="0.2414" relative="1" as="geometry">
            <mxPoint x="-15" y="13" as="offset" />
          </mxGeometry>
        </mxCell>
        <mxCell id="sN2Y_lVup7HZPwMn_3_K-7" value="Depending on the&amp;nbsp;&lt;div&gt;operation, using dictionary, select the correct one&amp;nbsp;&lt;/div&gt;&lt;div&gt;Key-Value&lt;/div&gt;" style="rhombus;whiteSpace=wrap;html=1;rounded=0;" vertex="1" parent="1">
          <mxGeometry x="338" y="330" width="175" height="160" as="geometry" />
        </mxCell>
        <mxCell id="sN2Y_lVup7HZPwMn_3_K-27" style="edgeStyle=orthogonalEdgeStyle;rounded=0;orthogonalLoop=1;jettySize=auto;html=1;entryX=0;entryY=0.5;entryDx=0;entryDy=0;" edge="1" parent="1" source="sN2Y_lVup7HZPwMn_3_K-9" target="sN2Y_lVup7HZPwMn_3_K-41">
          <mxGeometry relative="1" as="geometry">
            <mxPoint x="55" y="630" as="targetPoint" />
            <Array as="points">
              <mxPoint x="55" y="340" />
              <mxPoint x="55" y="620" />
            </Array>
          </mxGeometry>
        </mxCell>
        <mxCell id="sN2Y_lVup7HZPwMn_3_K-9" value="Executing add function" style="whiteSpace=wrap;html=1;rounded=0;" vertex="1" parent="1">
          <mxGeometry x="105" y="310" width="120" height="60" as="geometry" />
        </mxCell>
        <mxCell id="sN2Y_lVup7HZPwMn_3_K-26" value="" style="edgeStyle=orthogonalEdgeStyle;rounded=0;orthogonalLoop=1;jettySize=auto;html=1;exitX=0;exitY=0.5;exitDx=0;exitDy=0;entryX=0;entryY=0.5;entryDx=0;entryDy=0;" edge="1" parent="1" source="sN2Y_lVup7HZPwMn_3_K-12" target="sN2Y_lVup7HZPwMn_3_K-41">
          <mxGeometry relative="1" as="geometry">
            <mxPoint x="365.5" y="620.0285714285715" as="targetPoint" />
            <Array as="points">
              <mxPoint x="55" y="480" />
              <mxPoint x="55" y="620" />
            </Array>
          </mxGeometry>
        </mxCell>
        <mxCell id="sN2Y_lVup7HZPwMn_3_K-12" value="Executing subtract function" style="whiteSpace=wrap;html=1;rounded=0;" vertex="1" parent="1">
          <mxGeometry x="105" y="450" width="120" height="60" as="geometry" />
        </mxCell>
        <mxCell id="sN2Y_lVup7HZPwMn_3_K-29" style="edgeStyle=orthogonalEdgeStyle;rounded=0;orthogonalLoop=1;jettySize=auto;html=1;entryX=1;entryY=0.5;entryDx=0;entryDy=0;" edge="1" parent="1" source="sN2Y_lVup7HZPwMn_3_K-14" target="sN2Y_lVup7HZPwMn_3_K-41">
          <mxGeometry relative="1" as="geometry">
            <mxPoint x="485.5" y="620" as="targetPoint" />
            <Array as="points">
              <mxPoint x="795" y="340" />
              <mxPoint x="795" y="620" />
              <mxPoint x="520" y="620" />
            </Array>
          </mxGeometry>
        </mxCell>
        <mxCell id="sN2Y_lVup7HZPwMn_3_K-14" value="Executing multiply function" style="whiteSpace=wrap;html=1;rounded=0;" vertex="1" parent="1">
          <mxGeometry x="625" y="310" width="120" height="60" as="geometry" />
        </mxCell>
        <mxCell id="sN2Y_lVup7HZPwMn_3_K-28" style="edgeStyle=orthogonalEdgeStyle;rounded=0;orthogonalLoop=1;jettySize=auto;html=1;entryX=1;entryY=0.5;entryDx=0;entryDy=0;" edge="1" parent="1" source="sN2Y_lVup7HZPwMn_3_K-17" target="sN2Y_lVup7HZPwMn_3_K-41">
          <mxGeometry relative="1" as="geometry">
            <mxPoint x="485.5" y="620" as="targetPoint" />
            <Array as="points">
              <mxPoint x="795" y="480" />
              <mxPoint x="795" y="620" />
            </Array>
          </mxGeometry>
        </mxCell>
        <mxCell id="sN2Y_lVup7HZPwMn_3_K-17" value="Executing divide function" style="whiteSpace=wrap;html=1;rounded=0;" vertex="1" parent="1">
          <mxGeometry x="625" y="450" width="120" height="60" as="geometry" />
        </mxCell>
        <mxCell id="sN2Y_lVup7HZPwMn_3_K-38" value="Ask the user for mathematical operation and&amp;nbsp;&lt;div&gt;second number&lt;/div&gt;" style="whiteSpace=wrap;html=1;rounded=0;" vertex="1" parent="1">
          <mxGeometry x="365.5" y="190" width="120" height="60" as="geometry" />
        </mxCell>
        <mxCell id="sN2Y_lVup7HZPwMn_3_K-40" style="edgeStyle=orthogonalEdgeStyle;rounded=0;orthogonalLoop=1;jettySize=auto;html=1;entryX=0.5;entryY=0;entryDx=0;entryDy=0;" edge="1" parent="1" source="sN2Y_lVup7HZPwMn_3_K-38" target="sN2Y_lVup7HZPwMn_3_K-7">
          <mxGeometry relative="1" as="geometry" />
        </mxCell>
        <mxCell id="sN2Y_lVup7HZPwMn_3_K-44" style="edgeStyle=orthogonalEdgeStyle;rounded=0;orthogonalLoop=1;jettySize=auto;html=1;exitX=0;exitY=1;exitDx=0;exitDy=0;entryX=0;entryY=0.5;entryDx=0;entryDy=0;" edge="1" parent="1" source="sN2Y_lVup7HZPwMn_3_K-41" target="sN2Y_lVup7HZPwMn_3_K-3">
          <mxGeometry relative="1" as="geometry">
            <Array as="points">
              <mxPoint x="20" y="660" />
              <mxPoint x="20" y="130" />
            </Array>
          </mxGeometry>
        </mxCell>
        <mxCell id="sN2Y_lVup7HZPwMn_3_K-45" value="No" style="edgeLabel;html=1;align=center;verticalAlign=middle;resizable=0;points=[];" vertex="1" connectable="0" parent="sN2Y_lVup7HZPwMn_3_K-44">
          <mxGeometry x="-0.8961" y="1" relative="1" as="geometry">
            <mxPoint x="31" y="9" as="offset" />
          </mxGeometry>
        </mxCell>
        <mxCell id="sN2Y_lVup7HZPwMn_3_K-46" style="edgeStyle=orthogonalEdgeStyle;rounded=0;orthogonalLoop=1;jettySize=auto;html=1;exitX=1;exitY=1;exitDx=0;exitDy=0;entryX=1;entryY=0.5;entryDx=0;entryDy=0;" edge="1" parent="1" source="sN2Y_lVup7HZPwMn_3_K-41" target="sN2Y_lVup7HZPwMn_3_K-3">
          <mxGeometry relative="1" as="geometry">
            <Array as="points">
              <mxPoint x="830" y="660" />
              <mxPoint x="830" y="130" />
            </Array>
          </mxGeometry>
        </mxCell>
        <mxCell id="sN2Y_lVup7HZPwMn_3_K-47" value="Yes" style="edgeLabel;html=1;align=center;verticalAlign=middle;resizable=0;points=[];" vertex="1" connectable="0" parent="sN2Y_lVup7HZPwMn_3_K-46">
          <mxGeometry x="-0.9504" y="-1" relative="1" as="geometry">
            <mxPoint x="-9" y="9" as="offset" />
          </mxGeometry>
        </mxCell>
        <mxCell id="sN2Y_lVup7HZPwMn_3_K-41" value="Print out the result&lt;div&gt;and&amp;nbsp;&lt;span style=&quot;background-color: initial;&quot;&gt;ask the user&lt;/span&gt;&lt;div&gt;if they want to continue&lt;/div&gt;&lt;div&gt;using the same&lt;/div&gt;&lt;div&gt;number&lt;/div&gt;&lt;/div&gt;" style="rhombus;whiteSpace=wrap;html=1;" vertex="1" parent="1">
          <mxGeometry x="340.5" y="540" width="170" height="160" as="geometry" />
        </mxCell>
      </root>
    </mxGraphModel>
  </diagram>
</mxfile>
